<svg width="45" height="39" viewBox="0 0 45 39" fill="none" xmlns="http://www.w3.org/2000/svg">
<g clip-path="url(#clip0_8_78)">
<path d="M43.9453 17.0625H41.2766C40.0539 9.9271 33.5457 4.28665 25.3125 3.22695V0.914062C25.3125 0.409272 24.8403 0 24.2578 0H20.7422C20.1597 0 19.6875 0.409272 19.6875 0.914062V3.22695C11.4543 4.28665 4.94613 9.9271 3.7234 17.0625H1.05469C0.472236 17.0625 0 17.4718 0 17.9766V21.0234C0 21.5282 0.472236 21.9375 1.05469 21.9375H3.7234C4.94613 29.0729 11.4543 34.7134 19.6875 35.7731V38.0859C19.6875 38.5907 20.1597 39 20.7422 39H24.2578C24.8403 39 25.3125 38.5907 25.3125 38.0859V35.7731C33.5457 34.7134 40.0539 29.0729 41.2766 21.9375H43.9453C44.5278 21.9375 45 21.5282 45 21.0234V17.9766C45 17.4718 44.5278 17.0625 43.9453 17.0625ZM25.3125 30.8217V27.7266C25.3125 27.2218 24.8403 26.8125 24.2578 26.8125H20.7422C20.1597 26.8125 19.6875 27.2218 19.6875 27.7266V30.8217C14.5746 29.877 10.5278 26.374 9.43646 21.9375H13.0078C13.5903 21.9375 14.0625 21.5282 14.0625 21.0234V17.9766C14.0625 17.4718 13.5903 17.0625 13.0078 17.0625H9.43646C10.5265 12.6313 14.5685 9.1241 19.6875 8.17827V11.2734C19.6875 11.7782 20.1597 12.1875 20.7422 12.1875H24.2578C24.8403 12.1875 25.3125 11.7782 25.3125 11.2734V8.17827C30.4254 9.12295 34.4722 12.626 35.5635 17.0625H31.9922C31.4097 17.0625 30.9375 17.4718 30.9375 17.9766V21.0234C30.9375 21.5282 31.4097 21.9375 31.9922 21.9375H35.5635C34.4735 26.3687 30.4315 29.8759 25.3125 30.8217ZM25.3125 19.5C25.3125 20.8462 24.0533 21.9375 22.5 21.9375C20.9467 21.9375 19.6875 20.8462 19.6875 19.5C19.6875 18.1538 20.9467 17.0625 22.5 17.0625C24.0533 17.0625 25.3125 18.1538 25.3125 19.5Z" fill="black"/>
</g>
<defs>
<clipPath id="clip0_8_78">
<rect width="45" height="39" fill="white"/>
</clipPath>
</defs>
</svg>
